<?xml version="1.0" standalone="no"?>
<!DOCTYPE svg PUBLIC "-//W3C//DTD SVG 20010904//EN"
 "http://www.w3.org/TR/2001/REC-SVG-20010904/DTD/svg10.dtd">
<svg version="1.0" xmlns="http://www.w3.org/2000/svg"
 width="787.000000pt" height="787.000000pt" viewBox="0 0 787.000000 787.000000"
 preserveAspectRatio="xMidYMid meet">
<metadata>
Created by potrace 1.11, written by Peter Selinger 2001-2013
</metadata>
<g transform="translate(0.000000,787.000000) scale(0.100000,-0.100000)"
fill="#000000" stroke="none">
<path d="M4108 7623 c-587 -671 -844 -1113 -930 -1603 -19 -109 -16 -401 6
-525 22 -130 58 -274 102 -404 36 -109 70 -265 101 -461 14 -90 18 -173 18
-375 -1 -285 -10 -345 -71 -469 -28 -57 -104 -141 -104 -116 0 8 -5 76 -10
150 -40 532 -205 1102 -409 1407 -55 82 -186 222 -197 210 -3 -2 6 -69 20
-148 44 -254 51 -328 51 -554 0 -174 -4 -238 -18 -305 -43 -205 -113 -359
-257 -566 -371 -535 -459 -697 -573 -1052 -77 -237 -107 -426 -107 -669 0
-335 78 -644 234 -924 266 -477 722 -802 1294 -923 157 -33 170 -32 97 7 -250
135 -498 395 -619 651 -87 183 -120 341 -114 536 6 146 26 243 79 376 80 203
167 339 488 759 225 294 345 475 431 650 125 253 168 420 177 675 4 125 1 194
-12 285 -30 215 -101 457 -196 663 -21 45 -35 82 -32 82 10 0 106 -72 208
-155 285 -234 516 -494 749 -845 139 -209 184 -286 284 -486 198 -395 321
-771 392 -1198 141 -846 63 -1382 -249 -1720 l-36 -39 70 38 c339 183 663 484
857 798 274 441 377 999 284 1538 l-12 74 -7 -170 c-10 -289 -77 -506 -218
-710 -50 -73 -174 -203 -184 -193 -3 3 1 57 10 121 79 604 -37 1202 -358 1842
-122 245 -201 378 -552 930 -133 209 -279 443 -324 520 -171 293 -303 580
-375 819 -114 374 -126 775 -36 1144 26 107 94 312 134 405 9 20 15 37 13 37
-3 0 -47 -48 -99 -107z"/>
<path d="M4472 6334 c-25 -191 -8 -390 48 -554 55 -166 115 -270 290 -505 155
-207 178 -244 205 -319 l22 -59 14 84 c21 129 17 365 -9 460 -47 176 -130 317
-308 529 -150 179 -232 316 -235 393 0 12 -4 31 -8 42 -5 13 -11 -9 -19 -71z"/>
</g>
</svg>
