<?xml version="1.0" standalone="no"?>
<!DOCTYPE svg PUBLIC "-//W3C//DTD SVG 20010904//EN"
 "http://www.w3.org/TR/2001/REC-SVG-20010904/DTD/svg10.dtd">
<svg version="1.0" xmlns="http://www.w3.org/2000/svg"
 width="600.000000pt" height="600.000000pt" viewBox="0 0 600.000000 600.000000"
 preserveAspectRatio="xMidYMid meet">
<metadata>
Created by potrace 1.11, written by Peter Selinger 2001-2013
</metadata>
<g transform="translate(0.000000,600.000000) scale(0.100000,-0.100000)"
fill="#000000" stroke="none">
<path d="M3076 5422 c-145 -166 -234 -281 -332 -429 -286 -430 -340 -764 -195
-1216 79 -247 109 -591 69 -782 -12 -59 -48 -133 -76 -158 -20 -18 -20 -17
-27 75 -25 348 -140 745 -274 944 -40 60 -127 152 -135 143 -3 -2 4 -56 15
-118 31 -182 40 -327 29 -451 -20 -229 -49 -294 -299 -656 -162 -235 -278
-507 -317 -742 -21 -130 -16 -399 11 -507 120 -498 478 -844 989 -954 54 -12
100 -20 103 -18 2 3 -27 23 -64 45 -319 190 -506 547 -450 858 18 101 67 223
132 331 27 46 128 189 226 319 322 431 403 604 416 889 8 194 -27 376 -116
592 -21 51 -36 93 -32 93 9 0 136 -102 219 -177 145 -130 321 -344 449 -546
87 -138 222 -414 277 -568 108 -301 168 -640 169 -954 0 -168 -13 -272 -50
-390 -32 -103 -60 -157 -122 -239 -28 -36 -47 -66 -44 -66 13 0 149 84 223
138 41 30 122 102 180 161 225 226 356 490 400 803 14 100 14 311 -1 422 -12
91 -31 147 -22 63 8 -72 -16 -242 -48 -341 -40 -120 -87 -204 -160 -279 l-60
-62 5 35 c3 19 9 125 12 235 9 282 -21 472 -113 730 -92 259 -201 463 -484
905 -391 611 -505 867 -541 1218 -20 200 19 456 100 666 17 44 30 82 28 84 -3
2 -43 -41 -90 -96z"/>
<path d="M3344 4615 c-15 -91 -8 -253 15 -340 37 -139 83 -221 250 -445 39
-52 79 -117 90 -144 10 -27 21 -44 24 -39 17 28 29 203 18 273 -25 157 -69
245 -214 425 -107 133 -135 179 -158 259 l-17 61 -8 -50z"/>
<path d="M3211 2678 c42 -124 53 -232 45 -453 -4 -104 -9 -207 -12 -228 l-6
-38 -20 38 c-38 71 -132 162 -237 230 -63 40 -80 39 -20 -3 65 -45 156 -151
192 -223 31 -63 32 -71 31 -181 -1 -132 -18 -211 -111 -508 l-57 -183 -22 60
c-48 134 -147 258 -270 341 -90 60 -117 65 -53 11 122 -105 229 -307 272 -514
12 -57 12 -94 -7 -316 l-22 -252 46 3 45 3 7 104 c11 164 35 296 104 569 70
282 70 281 189 390 62 57 194 133 317 182 32 13 56 25 54 27 -6 6 -203 -46
-282 -73 -39 -14 -91 -39 -115 -54 -24 -16 -44 -28 -45 -27 -1 1 9 51 22 111
80 363 91 623 33 834 -21 78 -87 232 -99 232 -4 0 5 -37 21 -82z"/>
</g>
</svg>
